# xmcd
#
# Track frame offsets: 
#        150
#        42767
#        97854
#        139630
#
# Disc length: 2798 seconds
#
# Revision: 1
# Processed by: cddbd v1.5.2PL0 Copyright (c) Steve Scherf et al.
# Submitted via: ExactAudioCopyFreeDBPlugin 1.0
#
DISCID=260aec04
DTITLE=Montserrat Caballé - 1970 - Caballé: Donizetti Rarities (2008)
DYEAR=1970
DGENRE=Opera
TTITLE0=Torquato Tasso - Trono e corona
TTITLE1=Gemma di Vergy - Lascia, Guido, ch'io possa vendicare
TTITLE2=Belisario - Sin la tomba e a me negata
TTITLE3=Parisina d'este - Ciel sei tu in qual momento Ugo e spento
EXTD=
EXTT0=
EXTT1=
EXTT2=
EXTT3=
PLAYORDER=
